<svg xmlns="http://www.w3.org/2000/svg" width="55" height="55" viewBox="0 0 55 55">
    <g fill="#FFF" fill-rule="evenodd">
        <path d="M44.6 17.862c-4.28 0-7.762-3.484-7.762-7.767 0-3.884 2.864-7.112 6.591-7.678l-.037 7.673a1.166 1.166 0 0 0 1.164 1.17h7.72c-.564 3.731-3.792 6.602-7.676 6.602zM19.898 42.304a10.025 10.025 0 0 0-2.678-4.817 10.015 10.015 0 0 0-4.813-2.678L34.79 12.416a10.113 10.113 0 0 0 7.493 7.495L19.898 42.304zm-4.324 7.813c-3.027 3.027-7.95 3.028-10.977 0-3.027-3.03-3.027-7.955 0-10.984a7.711 7.711 0 0 1 5.488-2.274 7.71 7.71 0 0 1 5.49 2.274 7.717 7.717 0 0 1 2.273 5.492 7.718 7.718 0 0 1-2.274 5.492zM53.527 8.93h-7.8l.037-7.761a1.161 1.161 0 0 0-.34-.826A1.16 1.16 0 0 0 44.6 0c-5.318 0-9.678 4.14-10.054 9.367L9.36 34.566a10.004 10.004 0 0 0-6.408 2.92c-3.935 3.937-3.935 10.341 0 14.277a10.057 10.057 0 0 0 7.134 2.953c2.585 0 5.169-.985 7.135-2.953a10.01 10.01 0 0 0 2.92-6.408l25.19-25.202c5.224-.377 9.36-4.738 9.36-10.058 0-.643-.52-1.164-1.163-1.164z"/>
        <path d="M12.037 46.578c-1.043 1.043-2.86 1.043-3.904 0a2.744 2.744 0 0 1-.808-1.953c0-.738.287-1.431.808-1.953a2.751 2.751 0 0 1 1.952-.807c.707 0 1.414.268 1.952.807.521.522.809 1.215.809 1.953s-.288 1.431-.809 1.953m-5.55-5.552a5.057 5.057 0 0 0-1.49 3.599c0 1.36.529 2.638 1.49 3.6a5.052 5.052 0 0 0 3.598 1.49c1.36 0 2.637-.529 3.599-1.49a5.059 5.059 0 0 0 1.49-3.6 5.06 5.06 0 0 0-1.49-3.6 5.093 5.093 0 0 0-7.197 0"/>
    </g>
</svg>
