<svg xmlns="http://www.w3.org/2000/svg" xmlns:xlink="http://www.w3.org/1999/xlink" width="177" height="46" viewBox="0 0 177 46">
    <defs>
        <path id="a" d="M0 44.989h176.955V0H0z"/>
    </defs>
    <g fill="none" fill-rule="evenodd">
        <path fill="#151D23" d="M68.499 18.428l-3.169 1.47c-.806-.807-1.584-1.412-3.226-1.412-1.872 0-3.86 1.412-3.86 4.119 0 2.679 1.988 4.061 3.86 4.061 1.642 0 2.42-.576 3.226-1.382l3.198 1.469c-1.44 2.42-3.687 3.543-6.481 3.543-3.342 0-7.806-2.42-7.806-7.691 0-5.214 4.464-7.777 7.806-7.777 2.736 0 5.04 1.18 6.452 3.6M72.666 22.634c0 2.65 1.988 4.061 3.86 4.061 1.844 0 3.86-1.411 3.86-4.061 0-2.737-2.016-4.148-3.86-4.148-1.872 0-3.86 1.411-3.86 4.148m11.695 0c0 5.242-4.436 7.72-7.835 7.72s-7.863-2.478-7.863-7.72c0-5.243 4.464-7.806 7.863-7.806s7.835 2.563 7.835 7.806M96.74 22.547c0-2.678-1.9-4.061-3.945-4.061s-3.803 1.383-3.803 4.061c0 2.766 1.758 4.148 3.803 4.148s3.946-1.382 3.946-4.148zm3.918-12.846v20.364H96.54v-2.362c0 1.066-1.93 2.65-4.464 2.65-3.14 0-7.086-2.477-7.086-7.806 0-5.156 3.946-7.72 7.086-7.72 2.534 0 4.464 1.671 4.464 2.363V9.7h4.12zM106.182 21.107h7.144c-.461-1.843-2.103-2.765-3.6-2.765-1.47 0-2.996.922-3.544 2.765m10.773 2.91h-10.802c.49 1.872 2.017 2.851 4.004 2.851 1.873 0 2.593-.432 3.658-1.008l2.276 2.218c-1.325 1.354-3.14 2.275-6.078 2.275-3.715 0-7.95-2.563-7.95-7.72 0-5.242 4.292-7.805 7.662-7.805 3.399 0 8.123 2.563 7.23 9.188M121.607 22.547c0 2.766 1.757 4.148 3.802 4.148s3.946-1.382 3.946-4.148c0-2.678-1.901-4.061-3.946-4.061s-3.802 1.383-3.802 4.061m7.547-5.357v-2.103h4.118v14.978h-4.118v-2.362c0 1.066-1.93 2.65-4.465 2.65-3.14 0-7.086-2.477-7.086-7.806 0-5.156 3.946-7.72 7.086-7.72 2.535 0 4.465 1.671 4.465 2.363M147.127 22.547c0-2.678-1.757-4.061-3.802-4.061s-3.946 1.383-3.946 4.061c0 2.766 1.9 4.148 3.946 4.148 2.045 0 3.802-1.382 3.802-4.148m4.004 0c0 5.33-3.946 7.806-7.086 7.806-2.535 0-4.465-1.584-4.465-2.65v2.362h-4.119V9.701h4.119v7.489c0-.692 1.93-2.362 4.465-2.362 3.14 0 7.086 2.563 7.086 7.72"/>
        <mask id="b" fill="#fff">
            <use xlink:href="#a"/>
        </mask>
        <path fill="#151D23" d="M152.573 30.065h4.12V9.7h-4.12zM162.205 21.107h7.144c-.461-1.843-2.103-2.765-3.6-2.765-1.47 0-2.997.922-3.544 2.765m10.773 2.91h-10.802c.49 1.872 2.017 2.851 4.004 2.851 1.872 0 2.593-.432 3.658-1.008l2.276 2.218c-1.325 1.354-3.14 2.275-6.078 2.275-3.716 0-7.95-2.563-7.95-7.72 0-5.242 4.292-7.805 7.662-7.805 3.399 0 8.123 2.563 7.23 9.188" mask="url(#b)"/>
        <path fill="#FFB199" d="M14.996 29.992c0 8.283 6.714 14.997 14.996 14.997 8.283 0 14.997-6.714 14.997-14.997 0-8.282-6.714-14.996-14.997-14.996v14.996H14.996z" mask="url(#b)"/>
        <path fill="#165260" d="M29.992 14.996V0H0v29.992h14.996V14.996z" mask="url(#b)"/>
    </g>
</svg>
