<svg width="55" height="55" viewBox="0 0 55 55" fill="none" xmlns="http://www.w3.org/2000/svg">
<path fill-rule="evenodd" clip-rule="evenodd" d="M28.6915 52.1445V27.3459C28.6915 26.6506 28.1269 26.0878 27.4295 26.0878H2.556C3.21561 12.9793 14.1203 2.51634 27.4295 2.51634C41.1627 2.51634 52.3349 13.6545 52.3349 27.3459C52.3349 40.6146 41.84 51.4869 28.6915 52.1445ZM27.4295 0C12.3046 0 0 12.2672 0 27.3459C0 28.0405 0.565382 28.6041 1.26201 28.6041H26.1674V53.4337C26.1674 54.1282 26.732 54.6919 27.4295 54.6919C42.5543 54.6919 54.8589 42.4247 54.8589 27.3459C54.8589 12.2672 42.5543 0 27.4295 0Z" fill="#151D23"/>
<path fill-rule="evenodd" clip-rule="evenodd" d="M43.6241 29.9472C42.1534 29.9472 40.9579 28.7544 40.9579 27.2891C40.9579 25.8229 42.1534 24.6301 43.6241 24.6301C45.0947 24.6301 46.2903 25.8229 46.2903 27.2891C46.2903 28.7544 45.0947 29.9472 43.6241 29.9472ZM43.6241 22.1138C40.7618 22.1138 38.4338 24.4355 38.4338 27.2891C38.4338 30.1418 40.7618 32.4635 43.6241 32.4635C46.4863 32.4635 48.8143 30.1418 48.8143 27.2891C48.8143 24.4355 46.4863 22.1138 43.6241 22.1138Z" fill="#151D23"/>
<path fill-rule="evenodd" clip-rule="evenodd" d="M36.8499 13.6425C37.3698 13.125 38.053 12.865 38.7353 12.865C39.4185 12.865 40.1017 13.125 40.6208 13.6425C41.1247 14.145 41.4024 14.8135 41.4024 15.5222C41.4024 16.2327 41.1247 16.9004 40.6208 17.4019C39.6145 18.406 37.8578 18.4068 36.8499 17.4019C35.8108 16.366 35.8108 14.6793 36.8499 13.6425ZM38.7353 20.6975C40.1219 20.6975 41.4251 20.1599 42.4061 19.1818C43.3863 18.2038 43.9264 16.9054 43.9264 15.5222C43.9264 14.1408 43.3863 12.8415 42.4061 11.8635C40.3818 9.84536 37.0897 9.84788 35.0645 11.8635C33.042 13.8816 33.042 17.1646 35.0645 19.1818C36.0456 20.1599 37.3488 20.6975 38.7353 20.6975Z" fill="#151D23"/>
<path fill-rule="evenodd" clip-rule="evenodd" d="M26.9332 13.3075C25.4625 13.3075 24.2669 12.1148 24.2669 10.6486C24.2669 9.18323 25.4625 7.99048 26.9332 7.99048C28.4038 7.99048 29.5994 9.18323 29.5994 10.6486C29.5994 12.1148 28.4038 13.3075 26.9332 13.3075ZM26.9332 5.47414C24.0709 5.47414 21.7429 7.79588 21.7429 10.6486C21.7429 13.5021 24.0709 15.8239 26.9332 15.8239C29.7954 15.8239 32.1234 13.5021 32.1234 10.6486C32.1234 7.79588 29.7954 5.47414 26.9332 5.47414Z" fill="#151D23"/>
<path fill-rule="evenodd" clip-rule="evenodd" d="M17.0163 17.4023C16.01 18.4055 14.2525 18.4063 13.2462 17.4023H13.2454C12.2063 16.3664 12.2063 14.6796 13.2454 13.6429C13.7653 13.1245 14.4485 12.8653 15.1308 12.8653C15.814 12.8653 16.4972 13.1245 17.0163 13.6429C17.5202 14.1445 17.7979 14.813 17.7979 15.5226C17.7979 16.2322 17.5202 16.8998 17.0163 17.4023ZM11.4601 11.863C9.43747 13.8819 9.43747 17.1649 11.4601 19.1813H11.4609C12.4411 20.1594 13.7443 20.6979 15.1308 20.6979C16.5182 20.6979 17.8214 20.1594 18.8016 19.1813C19.7818 18.2042 20.3219 16.9049 20.3219 15.5226C20.3219 14.1403 19.7818 12.8418 18.8016 11.863C16.7773 9.84486 13.4852 9.84738 11.4601 11.863Z" fill="#151D23"/>
<path fill-rule="evenodd" clip-rule="evenodd" d="M40.6205 40.9349C39.6143 41.9381 37.8576 41.9389 36.8505 40.9349H36.8496C35.8106 39.899 35.8106 38.2122 36.8496 37.1755C37.3696 36.6571 38.0528 36.3979 38.7351 36.3979C39.4183 36.3979 40.1014 36.6571 40.6205 37.1755C41.1245 37.6771 41.4021 38.3456 41.4021 39.0552C41.4021 39.7648 41.1245 40.4324 40.6205 40.9349ZM35.0643 35.3956C33.0417 37.4145 33.0417 40.6975 35.0643 42.7139H35.0651C36.0453 43.692 37.3485 44.2304 38.7351 44.2304C40.1225 44.2304 41.4257 43.692 42.4059 42.7139C43.386 41.7368 43.9262 40.4375 43.9262 39.0552C43.9262 37.6729 43.386 36.3744 42.4059 35.3956C40.3816 33.3783 37.0894 33.38 35.0643 35.3956Z" fill="#151D23"/>
</svg>
