<svg xmlns="http://www.w3.org/2000/svg" width="55" height="55" viewBox="0 0 55 55">
    <g fill="#FFF" fill-rule="evenodd">
        <path d="M28.691 52.145v-24.8a1.26 1.26 0 0 0-1.262-1.257H2.556C3.216 12.979 14.12 2.516 27.429 2.516c13.734 0 24.906 11.139 24.906 24.83 0 13.269-10.495 24.14-23.644 24.799M27.43 0C12.305 0 0 12.267 0 27.346a1.26 1.26 0 0 0 1.262 1.258h24.905v24.83a1.26 1.26 0 0 0 1.262 1.258c15.125 0 27.43-12.267 27.43-27.346S42.554 0 27.429 0"/>
        <path d="M43.624 29.947a2.665 2.665 0 0 1-2.666-2.658 2.665 2.665 0 0 1 2.666-2.659 2.665 2.665 0 0 1 2.666 2.66 2.665 2.665 0 0 1-2.666 2.657m0-7.833c-2.862 0-5.19 2.322-5.19 5.175 0 2.853 2.328 5.175 5.19 5.175 2.862 0 5.19-2.322 5.19-5.175 0-2.853-2.328-5.175-5.19-5.175M36.85 13.643a2.667 2.667 0 0 1 1.885-.778 2.664 2.664 0 0 1 2.667 2.657c0 .71-.277 1.378-.781 1.88-1.007 1.004-2.763 1.005-3.771 0a2.657 2.657 0 0 1 0-3.76m1.885 7.056c1.387 0 2.69-.538 3.671-1.516a5.134 5.134 0 0 0 1.52-3.66c0-1.381-.54-2.68-1.52-3.659a5.21 5.21 0 0 0-7.342 0 5.172 5.172 0 0 0 0 7.319 5.164 5.164 0 0 0 3.671 1.516M26.933 13.308a2.665 2.665 0 0 1-2.666-2.66 2.665 2.665 0 0 1 2.666-2.658A2.665 2.665 0 0 1 29.6 10.65a2.665 2.665 0 0 1-2.666 2.659m0-7.834c-2.862 0-5.19 2.322-5.19 5.175 0 2.853 2.328 5.175 5.19 5.175 2.862 0 5.19-2.322 5.19-5.175 0-2.853-2.328-5.175-5.19-5.175M17.016 17.402c-1.006 1.003-2.764 1.004-3.77 0a2.657 2.657 0 0 1 1.885-4.537 2.66 2.66 0 0 1 2.667 2.658c0 .71-.278 1.377-.782 1.88m-5.556-5.54a5.172 5.172 0 0 0 0 7.318 5.161 5.161 0 0 0 3.67 1.517c1.388 0 2.691-.539 3.672-1.517a5.133 5.133 0 0 0 1.52-3.658c0-1.383-.54-2.681-1.52-3.66a5.21 5.21 0 0 0-7.342 0M40.62 40.935c-1.006 1.003-2.762 1.004-3.77 0a2.657 2.657 0 0 1 1.885-4.537 2.66 2.66 0 0 1 2.667 2.657c0 .71-.277 1.377-.781 1.88m-5.557-5.54a5.172 5.172 0 0 0 0 7.319h.001a5.161 5.161 0 0 0 3.67 1.516c1.388 0 2.69-.538 3.67-1.516a5.133 5.133 0 0 0 1.521-3.659c0-1.382-.54-2.68-1.52-3.66a5.211 5.211 0 0 0-7.342 0"/>
    </g>
</svg>
