<svg width="55" height="55" viewBox="0 0 55 55" fill="none" xmlns="http://www.w3.org/2000/svg">
<path fill-rule="evenodd" clip-rule="evenodd" d="M2.31627 52.4636L2.73238 14.6631H52.0278L51.6125 52.4636H2.31627ZM52.1629 2.354L52.0531 12.3091H2.87978V2.354H52.1629ZM54.4699 1.08833C54.4669 1.04204 54.4653 0.994172 54.4561 0.948662C54.4484 0.909428 54.4354 0.873334 54.4231 0.83567C54.4124 0.799575 54.4054 0.762696 54.3909 0.727386C54.3747 0.687368 54.3517 0.649704 54.331 0.611255C54.3149 0.582222 54.3033 0.552405 54.2849 0.525726C54.2565 0.481001 54.222 0.441767 54.1874 0.402534C54.1728 0.385271 54.1613 0.36487 54.146 0.349177L54.1437 0.346823C54.0899 0.292681 54.0323 0.243247 53.9701 0.200875C53.9602 0.193028 53.9479 0.189105 53.9364 0.182043C53.8842 0.148302 53.8304 0.116131 53.7721 0.0910213C53.7521 0.08239 53.7306 0.0784666 53.7091 0.0714046C53.6592 0.0533573 53.6093 0.0345253 53.5556 0.02354C53.4811 0.00784666 53.4043 0 53.3268 0H1.7282C1.64912 0 1.57158 0.00784666 1.49788 0.02354C1.47715 0.028248 1.4595 0.0368793 1.43877 0.0415873C1.3858 0.056496 1.33206 0.07062 1.28139 0.091806C1.26373 0.0996526 1.24837 0.110638 1.23148 0.119269C1.18158 0.143594 1.13168 0.168703 1.08562 0.20009C1.06796 0.21186 1.0526 0.228338 1.03648 0.241677C0.994258 0.273849 0.952801 0.305235 0.916718 0.342899C0.897525 0.361731 0.883706 0.383702 0.866816 0.403319C0.835339 0.440198 0.802327 0.475508 0.775457 0.516311C0.758567 0.542204 0.745516 0.572022 0.730929 0.599485C0.709433 0.637149 0.686401 0.674028 0.669511 0.714046C0.655692 0.747002 0.648015 0.783097 0.637267 0.817622C0.625751 0.856071 0.610397 0.89295 0.601952 0.933753C0.595042 0.969063 0.594274 1.00594 0.590436 1.04204C0.58583 1.08284 0.577385 1.12129 0.576617 1.16366L5.76302e-05 53.6272C-0.00301326 53.9419 0.116751 54.2448 0.333249 54.4684C0.548979 54.692 0.844552 54.8176 1.15164 54.8176H52.751C53.3828 54.8176 53.8957 54.2989 53.9026 53.6539L54.3379 14.0393C54.4246 13.8737 54.4784 13.6869 54.4784 13.4861V1.177C54.4784 1.14718 54.4722 1.11815 54.4699 1.08833Z" fill="#151D23"/>
<path fill-rule="evenodd" clip-rule="evenodd" d="M7.53442 6.54901C7.7394 6.33951 8.01118 6.22494 8.30061 6.22494C8.58927 6.22494 8.86181 6.33951 9.06602 6.54901C9.27101 6.75852 9.38309 7.03629 9.38309 7.33132C9.38309 7.62714 9.27101 7.90492 9.06602 8.11285V8.11364C8.65683 8.53265 7.94285 8.53186 7.53442 8.11285C7.32944 7.90492 7.21735 7.62714 7.21735 7.33132C7.21735 7.03629 7.32944 6.75852 7.53442 6.54901ZM8.30061 10.7901C9.16736 10.7901 10.0341 10.4535 10.6944 9.7787C11.3339 9.12507 11.6863 8.25645 11.6863 7.33132C11.6863 6.40699 11.3339 5.53836 10.6944 4.88473C9.37388 3.53275 7.22426 3.53432 5.90608 4.88473C5.26657 5.53836 4.91418 6.40699 4.91418 7.33132C4.91418 8.25645 5.26657 9.12507 5.90608 9.77791C6.56555 10.4535 7.43308 10.7901 8.30061 10.7901Z" fill="#151D23"/>
<path fill-rule="evenodd" clip-rule="evenodd" d="M15.2814 6.54903C15.4863 6.33953 15.7581 6.22497 16.0468 6.22497C16.3362 6.22497 16.6088 6.33953 16.813 6.54903C17.018 6.75854 17.13 7.03631 17.13 7.33135C17.13 7.62717 17.018 7.90494 16.813 8.11287V8.11366C16.4045 8.5311 15.6913 8.53346 15.2814 8.11287C15.0764 7.90494 14.9643 7.62717 14.9643 7.33135C14.9643 7.03631 15.0764 6.75854 15.2814 6.54903ZM16.0468 10.7902C16.9143 10.7902 17.7818 10.4535 18.4413 9.77794C19.0808 9.12509 19.4332 8.25647 19.4332 7.33135C19.4332 6.40701 19.0808 5.53838 18.4413 4.88476C17.1224 3.53513 14.9735 3.53356 13.653 4.88476C13.0135 5.53838 12.6611 6.40701 12.6611 7.33135C12.6611 8.25647 13.0135 9.12509 13.653 9.77794C14.3125 10.4535 15.18 10.7902 16.0468 10.7902Z" fill="#151D23"/>
<path fill-rule="evenodd" clip-rule="evenodd" d="M23.0283 6.54901C23.2333 6.33951 23.5051 6.22494 23.7945 6.22494C24.0832 6.22494 24.3557 6.33951 24.5599 6.54901C24.7649 6.75852 24.877 7.03629 24.877 7.33132C24.877 7.62714 24.7649 7.90492 24.5599 8.11285V8.11364C24.1507 8.53265 23.4375 8.53186 23.0283 8.11285C22.8233 7.90492 22.7112 7.62714 22.7112 7.33132C22.7112 7.03629 22.8233 6.75852 23.0283 6.54901ZM23.7945 10.7901C24.6613 10.7901 25.528 10.4535 26.1883 9.7787C26.8278 9.12507 27.1802 8.25645 27.1802 7.33132C27.1802 6.40699 26.8278 5.53836 26.1883 4.88473C24.8678 3.53275 22.7182 3.53432 21.4 4.88473C20.7605 5.53836 20.4081 6.40699 20.4081 7.33132C20.4081 8.25645 20.7605 9.12507 21.4 9.77791C22.0595 10.4535 22.927 10.7901 23.7945 10.7901Z" fill="#151D23"/>
<path fill-rule="evenodd" clip-rule="evenodd" d="M37.6577 35.4162C37.6331 35.4413 37.6093 35.468 37.5871 35.4955L35.0597 38.0786L33.2725 36.2519L35.8712 33.5966C36.0869 33.3753 36.2067 33.0748 36.2067 32.7625C36.2067 32.451 36.0839 32.1497 35.8681 31.9292L33.2725 29.277L35.0597 27.4503L40.2557 32.7609L37.6577 35.4162ZM35.8743 24.9535C35.6586 24.733 35.3653 24.609 35.0597 24.609C34.7549 24.609 34.4617 24.733 34.2459 24.9535L30.8296 28.4445C30.6139 28.6649 30.4926 28.9647 30.4926 29.277C30.4926 29.5885 30.6139 29.8882 30.8296 30.1087L33.4283 32.764L30.8296 35.4201C30.6139 35.6406 30.4926 35.9404 30.4926 36.2519C30.4926 36.5642 30.6139 36.8639 30.8296 37.0844L34.2459 40.5746C34.4709 40.8045 34.7649 40.9199 35.0597 40.9199C35.3545 40.9199 35.6493 40.8045 35.8743 40.5746L39.2891 37.0844C39.3137 37.0593 39.3375 37.0326 39.3597 37.0052L42.6978 33.5934C43.1477 33.1336 43.1477 32.389 42.6978 31.9292L35.8743 24.9535Z" fill="#151D23"/>
<path fill-rule="evenodd" clip-rule="evenodd" d="M19.4191 38.0783L16.8718 35.4771C16.8564 35.4591 16.8349 35.4355 16.8188 35.4191L14.2232 32.7669L16.8219 30.1124C16.8449 30.088 16.868 30.0637 16.8887 30.0386L19.4199 27.45L21.2064 29.2767L18.6084 31.932C18.1585 32.3918 18.1616 33.1396 18.6115 33.5994L21.2064 36.2516L19.4191 38.0783ZM23.6492 35.4191L21.0513 32.7645L23.6492 30.1092C24.0991 29.6494 24.0991 28.9048 23.6492 28.4449L20.2344 24.9532C19.8022 24.5122 19.0375 24.5122 18.6053 24.9532L15.1905 28.4449C15.1667 28.4685 15.1452 28.4936 15.1237 28.5187L11.781 31.9351C11.5653 32.1556 11.4432 32.4554 11.4432 32.7669C11.4432 33.0792 11.5653 33.3789 11.781 33.5994L18.6053 40.5751C18.8218 40.7956 19.1151 40.9196 19.4199 40.9196C19.7247 40.9196 20.0179 40.7956 20.2344 40.5751L23.6492 37.0833C24.0991 36.6235 24.0991 35.8789 23.6492 35.4191Z" fill="#151D23"/>
<path fill-rule="evenodd" clip-rule="evenodd" d="M29.0096 19.6814C28.3846 19.5732 27.7897 20.0086 27.686 20.6505L23.832 44.4949C23.7276 45.136 24.153 45.7418 24.7802 45.8477C24.8431 45.8579 24.9069 45.8634 24.969 45.8634C25.5226 45.8634 26.0108 45.4554 26.1037 44.8779L29.9577 21.0342C30.0621 20.3923 29.6368 19.7874 29.0096 19.6814Z" fill="#151D23"/>
</svg>
