<svg xmlns="http://www.w3.org/2000/svg" width="55" height="55" viewBox="0 0 55 55">
    <g fill="#FFF" fill-rule="evenodd">
        <path d="M27.614 2.514a8.593 8.593 0 0 0-6.064 2.484 8.45 8.45 0 0 0-.832 11.06l5.998-5.942c.477-.472 1.32-.472 1.797 0l5.997 5.941a8.45 8.45 0 0 0-.831-11.059 8.595 8.595 0 0 0-6.065-2.484m6.962 16.647c-.337 0-.66-.133-.897-.37l-6.065-6.007-6.064 6.008c-.476.472-1.32.472-1.796 0a10.95 10.95 0 0 1 0-15.573c4.334-4.292 11.387-4.292 15.72 0a10.95 10.95 0 0 1 0 15.573 1.28 1.28 0 0 1-.898.369M2.816 52.374h49.597V25.237H2.816v27.137zm50.867 2.516H1.546c-.702 0-1.27-.564-1.27-1.258V23.978c0-.694.568-1.258 1.27-1.258h52.137c.7 0 1.27.564 1.27 1.258v29.654c0 .694-.57 1.258-1.27 1.258z"/>
    </g>
</svg>
