<svg width="1481" height="424" viewBox="0 0 1481 424" fill="none" xmlns="http://www.w3.org/2000/svg">
<path d="M648.404 116.344C638.311 106.253 626.338 98.1801 613.141 92.5694C599.609 86.8401 585.027 83.9177 570.301 83.984C556.461 83.959 542.738 86.4948 529.844 91.4599C517.082 96.353 505.338 103.516 495.197 112.593L477.392 92.1996C476.442 91.1214 475.27 90.2553 473.954 89.6586C472.639 89.0619 471.209 88.7484 469.761 88.739H469.199C467.871 88.739 466.556 88.9975 465.33 89.4996C464.103 90.0017 462.99 90.7377 462.052 91.6653C461.114 92.5929 460.371 93.6939 459.865 94.9052C459.36 96.1166 459.101 97.4144 459.105 98.7245V324.323C459.098 326.974 460.156 329.519 462.049 331.401C463.941 333.282 466.512 334.347 469.199 334.361H512.253C513.586 334.358 514.905 334.095 516.134 333.589C517.364 333.083 518.481 332.342 519.421 331.41C520.361 330.478 521.105 329.372 521.612 328.156C522.119 326.94 522.378 325.638 522.374 324.323V194.168C522.338 187.907 523.595 181.705 526.069 175.94C528.44 170.334 531.896 165.237 536.244 160.936C540.726 156.541 546.045 153.065 551.895 150.707C557.745 148.35 564.009 147.157 570.328 147.199C576.613 147.161 582.839 148.402 588.615 150.845C600.004 155.66 609.056 164.647 613.864 175.914C616.324 181.683 617.581 187.882 617.559 194.141V324.481C617.559 327.134 618.624 329.68 620.52 331.561C622.417 333.442 624.991 334.506 627.68 334.52H670.681C673.368 334.506 675.939 333.441 677.831 331.559C679.724 329.677 680.782 327.132 680.775 324.481V194.168C680.856 179.47 677.905 164.909 672.1 151.373C666.515 138.324 658.475 126.439 648.404 116.344V116.344ZM1136.81 89.3729H967.16C964.481 89.3869 961.916 90.4488 960.029 92.3256C958.142 94.2025 957.086 96.7411 957.093 99.3849V141.652C957.089 142.959 957.347 144.255 957.851 145.465C958.355 146.674 959.096 147.774 960.031 148.701C960.965 149.629 962.076 150.365 963.3 150.869C964.523 151.373 965.835 151.634 967.16 151.637H977.87C980.557 151.644 983.131 152.702 985.029 154.579C986.926 156.456 987.991 158.998 987.991 161.649V224.573C987.914 239.226 990.857 253.74 996.64 267.236C1008.03 293.567 1029.26 314.558 1055.92 325.855C1069.53 331.637 1084.21 334.569 1099.03 334.467H1136.91C1138.25 334.463 1139.57 334.201 1140.8 333.695C1142.02 333.188 1143.14 332.448 1144.08 331.516C1145.02 330.584 1145.77 329.478 1146.27 328.262C1146.78 327.046 1147.04 325.743 1147.03 324.428V282.162C1147.04 280.848 1146.78 279.547 1146.27 278.332C1145.77 277.118 1145.02 276.014 1144.08 275.084C1143.14 274.154 1142.02 273.416 1140.79 272.912C1139.56 272.409 1138.25 272.15 1136.91 272.15H1098.92C1092.48 272.167 1086.1 270.881 1080.18 268.372C1074.49 265.961 1069.31 262.51 1064.92 258.202C1060.56 253.891 1057.1 248.786 1054.71 243.171C1052.23 237.318 1050.98 231.025 1051.05 224.679V161.755C1051.05 159.108 1052.11 156.57 1054 154.694C1055.89 152.818 1058.46 151.757 1061.14 151.743H1136.89C1139.57 151.743 1142.15 150.691 1144.04 148.818C1145.94 146.945 1147.01 144.406 1147.01 141.757V99.4906C1147.02 98.1625 1146.77 96.8448 1146.26 95.6144C1145.75 94.384 1145 93.2654 1144.06 92.3238C1143.11 91.3822 1141.98 90.6364 1140.73 90.1298C1139.49 89.6232 1138.15 89.3659 1136.81 89.3729V89.3729ZM1412.59 84.8293H1412.16C1410.66 84.8231 1409.17 85.1498 1407.82 85.7853C1406.46 86.4208 1405.26 87.349 1404.32 88.5012L1389.46 106.068C1388.61 107.079 1387.57 107.915 1386.39 108.527C1385.21 109.138 1383.93 109.514 1382.6 109.632C1381.28 109.75 1379.94 109.607 1378.67 109.214C1377.41 108.82 1376.23 108.182 1375.21 107.336C1371.6 104.298 1367.79 101.419 1363.86 98.6452C1357.17 93.9178 1350.07 89.7725 1342.65 86.2558C1335.3 82.7685 1327.63 79.9992 1319.73 77.9874C1311.93 76.0178 1303.91 75.0151 1295.85 75.0023C1278.95 74.9006 1262.2 78.1433 1246.58 84.5387C1231.45 90.6722 1217.72 99.7252 1206.18 111.167C1194.46 122.997 1185.21 136.98 1178.95 152.324C1172.18 169.062 1168.8 186.95 1169.02 204.972C1168.69 223.707 1172.06 242.326 1178.95 259.787C1185.09 275.06 1194.36 288.919 1206.18 300.495C1217.71 311.591 1231.44 320.216 1246.5 325.829C1262.24 331.719 1278.94 334.683 1295.77 334.572C1303.78 334.565 1311.76 333.553 1319.52 331.561C1327.37 329.56 1335.02 326.836 1342.36 323.425C1349.78 319.987 1356.87 315.912 1363.56 311.247C1367.37 308.605 1371.01 305.963 1374.57 303.084C1375.63 302.229 1376.86 301.599 1378.18 301.231C1379.5 300.864 1380.89 300.768 1382.25 300.949C1383.61 301.129 1384.92 301.583 1386.09 302.282C1387.27 302.981 1388.28 303.91 1389.08 305.012L1404.24 325.802C1405.48 327.527 1407.25 328.815 1409.29 329.479C1411.33 330.143 1413.53 330.149 1415.57 329.495C1417.61 328.841 1419.39 327.562 1420.65 325.843C1421.9 324.124 1422.57 322.056 1422.55 319.938V94.8149C1422.56 92.1756 1421.5 89.6409 1419.62 87.7648C1417.74 85.8887 1415.18 84.8239 1412.51 84.8029L1412.59 84.8293ZM1354.01 229.857C1350.8 237.695 1346.21 244.911 1340.46 251.175C1334.77 257.331 1327.97 262.384 1320.4 266.074C1312.79 269.782 1304.42 271.699 1295.93 271.674C1287.59 271.72 1279.31 270.242 1271.51 267.316C1264 264.517 1257.2 260.125 1251.59 254.451C1245.71 248.459 1241.15 241.325 1238.2 233.502C1231.71 214.995 1231.71 194.871 1238.2 176.363C1241.17 168.552 1245.73 161.423 1251.59 155.415C1257.21 149.763 1264.01 145.382 1271.51 142.576C1279.31 139.654 1287.59 138.177 1295.93 138.217C1304.42 138.181 1312.8 140.098 1320.4 143.818C1327.98 147.485 1334.79 152.541 1340.46 158.717C1346.21 164.981 1350.8 172.198 1354.01 180.035C1360.61 196.021 1360.61 213.924 1354.01 229.91V229.857ZM127.711 88.9239H84.1477C82.8164 88.9204 81.4974 89.1761 80.2664 89.6764C79.0354 90.1767 77.9165 90.9116 76.9738 91.8392C76.0312 92.7668 75.2833 93.8688 74.773 95.082C74.2627 96.2952 74 97.5959 74 98.9094V324.508C74 327.165 75.0683 329.715 76.9706 331.597C78.8729 333.478 81.4539 334.539 84.1477 334.546H127.63C128.963 334.543 130.282 334.28 131.512 333.774C132.741 333.267 133.858 332.527 134.798 331.595C135.738 330.663 136.482 329.557 136.989 328.341C137.496 327.125 137.755 325.822 137.751 324.508V98.9094C137.751 96.2657 136.689 93.7298 134.796 91.8579C132.904 89.986 130.337 88.9309 127.657 88.9239H127.711ZM305.764 105.936C307.025 104.483 307.838 102.704 308.108 100.81C308.378 98.9161 308.094 96.9853 307.29 95.2451C306.485 93.5049 305.193 92.0276 303.566 90.9873C301.94 89.947 300.045 89.3869 298.107 89.3729H249.269C247.811 89.3747 246.37 89.69 245.048 90.2967C243.725 90.9035 242.553 91.7872 241.612 92.8864L143.481 205.448C141.846 207.269 140.942 209.618 140.942 212.052C140.942 214.485 141.846 216.835 143.481 218.656L241.612 331.191C242.555 332.285 243.729 333.164 245.051 333.766C246.374 334.368 247.813 334.68 249.269 334.678H298.053C299.997 334.668 301.897 334.11 303.529 333.068C305.161 332.026 306.456 330.546 307.261 328.8C308.067 327.055 308.349 325.119 308.074 323.221C307.799 321.322 306.979 319.541 305.711 318.088L218.558 218.63C216.933 216.803 216.037 214.456 216.037 212.026C216.037 209.595 216.933 207.248 218.558 205.421L305.764 105.936ZM400.575 88.8975H400.039C398.583 88.8978 397.144 89.2097 395.822 89.8117C394.5 90.4137 393.326 91.2915 392.382 92.3845L390.347 94.7355L349.89 140.991C348.289 142.807 347.414 145.136 347.426 147.542V324.534C347.423 325.845 347.681 327.145 348.186 328.357C348.692 329.57 349.434 330.673 350.372 331.603C351.309 332.532 352.423 333.271 353.649 333.776C354.876 334.281 356.191 334.543 357.52 334.546H400.521C403.203 334.532 405.771 333.471 407.662 331.595C409.554 329.719 410.615 327.18 410.615 324.534V98.9094C410.615 96.2632 409.554 93.7246 407.662 91.8485C405.771 89.9725 403.203 88.9114 400.521 88.8975H400.575ZM917.761 203.81C910.458 197.277 901.962 192.176 892.726 188.779C882.945 185.196 872.582 183.405 862.149 183.496H796.256C794.169 183.521 792.101 183.116 790.183 182.306C788.264 181.496 786.539 180.3 785.117 178.793C783.613 177.303 782.428 175.529 781.632 173.578C780.836 171.627 780.446 169.537 780.485 167.434C780.499 163.309 782.164 159.357 785.118 156.438C788.072 153.519 792.075 151.869 796.256 151.848H914.333C917.013 151.841 919.58 150.786 921.473 148.914C923.365 147.042 924.427 144.507 924.427 141.863V99.3849C924.431 98.0736 924.173 96.7744 923.667 95.5616C923.162 94.3488 922.419 93.2461 921.482 92.3164C920.545 91.3867 919.431 90.6482 918.204 90.1432C916.978 89.6381 915.662 89.3764 914.333 89.3729H796.229C785.635 89.3009 775.138 91.3687 765.384 95.4488C746.493 103.297 731.483 118.154 723.588 136.817C719.523 146.489 717.43 156.858 717.43 167.329C717.43 177.799 719.523 188.168 723.588 197.84C731.532 216.557 746.51 231.515 765.384 239.578C775.118 243.732 785.623 245.838 796.229 245.76H864.184C867.549 245.735 870.803 246.946 873.312 249.158C875.821 251.37 877.406 254.425 877.759 257.726C877.926 259.558 877.705 261.404 877.107 263.147C876.51 264.889 875.551 266.489 874.29 267.844C873.03 269.2 871.497 270.28 869.789 271.017C868.081 271.754 866.235 272.131 864.371 272.123H727.497C726.172 272.127 724.86 272.388 723.637 272.892C722.413 273.395 721.302 274.132 720.368 275.059C719.433 275.986 718.692 277.086 718.188 278.296C717.684 279.505 717.426 280.801 717.43 282.109V324.376C717.426 325.683 717.684 326.979 718.188 328.189C718.692 329.398 719.433 330.498 720.368 331.426C721.302 332.353 722.413 333.089 723.637 333.593C724.86 334.097 726.172 334.358 727.497 334.361H862.015C872.352 334.38 882.591 332.374 892.137 328.461C901.683 324.548 910.347 318.804 917.627 311.564C924.775 304.41 930.512 296.007 934.548 286.785C938.741 277.194 940.874 266.85 940.814 256.406C940.923 246.22 938.785 236.134 934.548 226.845C930.535 218.151 924.81 210.33 917.707 203.836L917.761 203.81Z" fill="#5333ED"/>
</svg>
