<svg xmlns="http://www.w3.org/2000/svg" width="144" height="25" viewBox="0 0 144 25">
    <g fill="#FFF" fill-rule="evenodd">
        <path d="M16.818 10.474l-3.692 1.712c-.94-.94-1.846-1.645-3.759-1.645-2.181 0-4.497 1.645-4.497 4.8 0 3.121 2.316 4.732 4.497 4.732 1.913 0 2.82-.671 3.76-1.61l3.725 1.71c-1.678 2.82-4.296 4.13-7.552 4.13-3.893 0-9.096-2.82-9.096-8.963 0-6.075 5.203-9.062 9.096-9.062 3.189 0 5.874 1.376 7.518 4.196M21.675 15.374c0 3.088 2.316 4.733 4.497 4.733 2.149 0 4.498-1.645 4.498-4.733 0-3.188-2.35-4.833-4.498-4.833-2.181 0-4.497 1.645-4.497 4.833m13.627 0c0 6.109-5.17 8.995-9.13 8.995-3.96 0-9.163-2.886-9.163-8.995 0-6.109 5.203-9.096 9.163-9.096s9.13 2.987 9.13 9.096M49.728 15.273c0-3.121-2.216-4.732-4.599-4.732s-4.43 1.611-4.43 4.732c0 3.223 2.047 4.834 4.43 4.834 2.383 0 4.599-1.611 4.599-4.834zM54.292.303v23.73h-4.8v-2.752c0 1.242-2.248 3.088-5.202 3.088-3.658 0-8.257-2.886-8.257-9.096 0-6.008 4.599-8.995 8.257-8.995 2.954 0 5.203 1.947 5.203 2.752V.304h4.8zM60.73 13.595h8.323c-.537-2.148-2.45-3.222-4.195-3.222-1.712 0-3.49 1.074-4.129 3.222m12.553 3.39H60.696c.57 2.182 2.35 3.323 4.665 3.323 2.182 0 3.021-.504 4.263-1.175l2.651 2.585c-1.544 1.577-3.658 2.651-7.082 2.651-4.33 0-9.264-2.987-9.264-8.995 0-6.109 5.002-9.096 8.929-9.096 3.96 0 9.465 2.987 8.424 10.707M78.703 15.273c0 3.223 2.047 4.834 4.43 4.834 2.383 0 4.599-1.611 4.599-4.834 0-3.121-2.216-4.732-4.599-4.732s-4.43 1.611-4.43 4.732m8.794-6.243V6.58h4.8v17.454h-4.8V21.28c0 1.242-2.25 3.088-5.203 3.088-3.658 0-8.257-2.886-8.257-9.096 0-6.008 4.599-8.995 8.257-8.995 2.954 0 5.203 1.947 5.203 2.752M108.44 15.273c0-3.121-2.047-4.732-4.43-4.732-2.383 0-4.598 1.611-4.598 4.732 0 3.223 2.215 4.834 4.598 4.834s4.43-1.611 4.43-4.834m4.666 0c0 6.21-4.599 9.096-8.257 9.096-2.954 0-5.203-1.846-5.203-3.088v2.753h-4.8V.304h4.8V9.03c0-.805 2.25-2.752 5.203-2.752 3.658 0 8.257 2.987 8.257 8.995M114.786 24.034h4.8V.304h-4.8zM126.01 13.595h8.324c-.537-2.148-2.45-3.222-4.195-3.222-1.712 0-3.491 1.074-4.129 3.222m12.553 3.39h-12.586c.57 2.182 2.35 3.323 4.665 3.323 2.182 0 3.02-.504 4.263-1.175l2.651 2.585c-1.543 1.577-3.658 2.651-7.082 2.651-4.33 0-9.264-2.987-9.264-8.995 0-6.109 5.002-9.096 8.929-9.096 3.96 0 9.465 2.987 8.424 10.707"/>
    </g>
</svg>
