<svg width="55" height="55" viewBox="0 0 55 55" fill="none" xmlns="http://www.w3.org/2000/svg">
<path fill-rule="evenodd" clip-rule="evenodd" d="M27.1338 26.7007H9.31318L32.2329 3.62886V9.92092C26.2449 10.4608 21.5349 15.5328 21.5349 21.6981C21.5349 22.2854 22.0079 22.7608 22.5907 22.7608H32.2329V32.467C32.2329 33.0537 32.7059 33.5298 33.2887 33.5298C39.4133 33.5298 44.4519 28.7879 44.9882 22.7608H50.9798L28.1895 45.7023V27.7634C28.1895 27.1768 27.7165 26.7007 27.1338 26.7007ZM34.3444 20.6353V12.0535C38.8185 12.5466 42.3798 16.1322 42.869 20.6353H34.3444ZM34.3444 22.7608H42.8669C42.377 27.2646 38.8192 30.8531 34.3444 31.3462V22.7608ZM32.2329 20.6353H23.7041C24.1932 16.1315 27.7588 12.5494 32.2329 12.0563V20.6353ZM52.6028 20.6353H44.9882C44.4828 14.9597 39.9833 10.4296 34.3444 9.92092V2.12546H52.6028V20.6353ZM54.7142 1.06273C54.7142 0.476102 54.2412 0 53.6585 0H33.2887C33.2183 0 33.1486 0.00708485 33.0803 0.021963C33.0346 0.0304649 32.9909 0.04676 32.948 0.0616382C32.9262 0.0694315 32.9037 0.0736825 32.8833 0.0821843C32.8368 0.102022 32.7939 0.127527 32.7509 0.153033C32.7348 0.162952 32.7179 0.170036 32.7017 0.179955C32.6447 0.218922 32.5912 0.262848 32.5426 0.311733L6.01792 27.0117C5.71598 27.3156 5.62519 27.7733 5.78918 28.1701C5.95246 28.5675 6.33745 28.8261 6.76467 28.8261H26.0781V48.2677C26.0781 48.6977 26.335 49.0853 26.7298 49.2496C26.86 49.3042 26.998 49.3304 27.1338 49.3304C27.4083 49.3304 27.6778 49.2227 27.8805 49.0194L54.0392 22.6871C54.4334 22.5327 54.7142 22.1494 54.7142 21.6981C54.7142 21.6761 54.7093 21.6556 54.7079 21.6336C54.7093 21.6109 54.7142 21.5897 54.7142 21.5677V1.06273Z" fill="#151D23"/>
<path fill-rule="evenodd" clip-rule="evenodd" d="M11.753 52.8005H2.11145V43.095C2.11145 38.1016 5.87545 33.9775 10.6973 33.4469V35.5624C7.02549 36.0817 4.1877 39.2579 4.1877 43.095V49.6471C4.1877 50.2337 4.66067 50.7098 5.24343 50.7098H11.753C15.5649 50.7098 18.7194 47.8539 19.236 44.1577H21.3369C20.8097 49.0109 16.7128 52.8005 11.753 52.8005ZM17.1048 44.1577C16.6108 46.6771 14.3994 48.5844 11.753 48.5844H6.29915V43.095C6.29915 40.4311 8.19382 38.2043 10.6973 37.7077V43.095C10.6973 43.6816 11.1696 44.1577 11.753 44.1577H17.1048ZM22.4503 42.0323H18.2626H12.8087V36.5422V32.326C12.8087 31.7387 12.3365 31.2633 11.753 31.2633C5.27228 31.2633 0 36.5706 0 43.095V53.8633C0 54.4499 0.47226 54.926 1.05572 54.926H11.753C18.2337 54.926 23.506 49.6187 23.506 43.095C23.506 42.5084 23.0331 42.0323 22.4503 42.0323Z" fill="#151D23"/>
</svg>
