<svg xmlns="http://www.w3.org/2000/svg" width="55" height="55" viewBox="0 0 55 55">
    <g fill="#FFF" fill-rule="evenodd">
        <path d="M27.134 26.7H9.314L32.232 3.63V9.92c-5.988.54-10.698 5.612-10.698 11.777a1.06 1.06 0 0 0 1.056 1.063h9.642v9.706a1.06 1.06 0 0 0 1.056 1.063c6.124 0 11.163-4.742 11.7-10.77h5.99L28.19 45.703V27.763a1.06 1.06 0 0 0-1.055-1.062zm7.21-6.065v-8.582c4.475.494 8.036 4.08 8.525 8.582h-8.525zm0 2.126h8.523c-.49 4.504-4.048 8.092-8.523 8.585v-8.585zm-2.111-2.126h-8.529c.49-4.504 4.055-8.086 8.529-8.579v8.58zm20.37 0h-7.615c-.505-5.675-5.005-10.205-10.644-10.714V2.125h18.259v18.51zm2.111-19.572A1.06 1.06 0 0 0 53.66 0h-20.37c-.07 0-.14.007-.209.022-.045.008-.089.025-.132.04-.022.007-.044.012-.065.02-.046.02-.09.046-.132.071-.016.01-.033.017-.05.027-.056.039-.11.083-.158.132l-26.525 26.7a1.067 1.067 0 0 0-.229 1.158c.164.398.549.656.976.656h19.313v19.442a1.062 1.062 0 0 0 1.056 1.062c.274 0 .544-.107.747-.31l26.158-26.333c.394-.154.675-.538.675-.989 0-.022-.005-.042-.006-.064.001-.023.006-.044.006-.066V1.063z"/>
        <path d="M11.753 52.8H2.111v-9.705c0-4.993 3.764-9.118 8.586-9.648v2.115c-3.672.52-6.51 3.696-6.51 7.533v6.552a1.06 1.06 0 0 0 1.056 1.063h6.51c3.812 0 6.966-2.856 7.483-6.552h2.1c-.526 4.853-4.623 8.642-9.583 8.642zm5.352-8.642c-.494 2.52-2.706 4.426-5.352 4.426H6.299v-5.489a5.491 5.491 0 0 1 4.398-5.387v5.387a1.06 1.06 0 0 0 1.056 1.063h5.352zm5.345-2.126H12.81v-9.706c0-.587-.473-1.063-1.056-1.063C5.273 31.263 0 36.571 0 43.095v10.768a1.06 1.06 0 0 0 1.056 1.063h10.697c6.48 0 11.753-5.307 11.753-11.831a1.06 1.06 0 0 0-1.056-1.063z"/>
    </g>
</svg>
