<svg width="55" height="55" viewBox="0 0 55 55" fill="none" xmlns="http://www.w3.org/2000/svg">
<path fill-rule="evenodd" clip-rule="evenodd" d="M24.775 23.643C24.145 23.643 23.635 24.153 23.635 24.783V47.256C11.76 46.66 2.28 36.808 2.28 24.783C2.28 12.375 12.37 2.28 24.775 2.28C36.797 2.28 46.647 11.762 47.242 23.643H24.775ZM49.551 24.783C49.551 11.117 38.437 0 24.775 0C11.115 0 0 11.117 0 24.783C0 38.448 11.114 49.565 24.775 49.565C25.405 49.565 25.915 49.055 25.915 48.425V25.923H48.411C49.041 25.923 49.551 25.413 49.551 24.783V24.783Z" fill="#151D23"/>
<path fill-rule="evenodd" clip-rule="evenodd" d="M31.3401 52.6751V31.3421H52.6671C52.0911 42.8421 42.8391 52.0971 31.3401 52.6751ZM53.8361 29.0601H30.2001C29.5701 29.0601 29.0601 29.5701 29.0601 30.2001V53.8421C29.0601 54.4721 29.5701 54.9821 30.2001 54.9821C43.8621 54.9821 54.9761 43.8651 54.9761 30.2011C54.9761 29.5711 54.4661 29.0611 53.8361 29.0611" fill="#151D23"/>
</svg>
