<svg xmlns="http://www.w3.org/2000/svg" width="55" height="55" viewBox="0 0 55 55">
    <g fill="#FFF" fill-rule="evenodd">
        <path d="M24.775 23.643c-.63 0-1.14.51-1.14 1.14v22.473C11.76 46.66 2.28 36.808 2.28 24.783 2.28 12.375 12.37 2.28 24.775 2.28c12.022 0 21.872 9.482 22.467 21.363H24.775zm24.776 1.14C49.551 11.117 38.437 0 24.775 0 11.115 0 0 11.117 0 24.783c0 13.665 11.114 24.782 24.775 24.782.63 0 1.14-.51 1.14-1.14V25.923h22.496c.63 0 1.14-.51 1.14-1.14z"/>
        <path d="M31.34 52.675V31.342h21.327c-.576 11.5-9.828 20.755-21.327 21.333M53.836 29.06H30.2c-.63 0-1.14.51-1.14 1.14v23.642c0 .63.51 1.14 1.14 1.14 13.662 0 24.776-11.117 24.776-24.781 0-.63-.51-1.14-1.14-1.14"/>
    </g>
</svg>
