<svg width="55" height="55" viewBox="0 0 55 55" fill="none" xmlns="http://www.w3.org/2000/svg">
<path fill-rule="evenodd" clip-rule="evenodd" d="M2.31627 52.4636L2.73238 14.6631H52.0278L51.6125 52.4636H2.31627ZM52.1629 2.354L52.0531 12.3091H2.87978V2.354H52.1629ZM54.4699 1.08833C54.4669 1.04204 54.4653 0.994172 54.4561 0.948662C54.4484 0.909428 54.4354 0.873334 54.4231 0.83567C54.4124 0.799575 54.4054 0.762696 54.3909 0.727386C54.3747 0.687368 54.3517 0.649704 54.331 0.611255C54.3149 0.582222 54.3033 0.552405 54.2849 0.525726C54.2565 0.481001 54.222 0.441767 54.1874 0.402534C54.1728 0.385271 54.1613 0.36487 54.146 0.349177L54.1437 0.346823C54.0899 0.292681 54.0323 0.243247 53.9701 0.200875C53.9602 0.193028 53.9479 0.189105 53.9364 0.182043C53.8842 0.148302 53.8304 0.116131 53.7721 0.0910213C53.7521 0.08239 53.7306 0.0784666 53.7091 0.0714046C53.6592 0.0533573 53.6093 0.0345253 53.5556 0.02354C53.4811 0.00784666 53.4043 0 53.3268 0H1.7282C1.64912 0 1.57158 0.00784666 1.49788 0.02354C1.47715 0.028248 1.4595 0.0368793 1.43877 0.0415873C1.3858 0.056496 1.33206 0.07062 1.28139 0.091806C1.26373 0.0996526 1.24837 0.110638 1.23148 0.119269C1.18158 0.143594 1.13168 0.168703 1.08562 0.20009C1.06796 0.21186 1.0526 0.228338 1.03648 0.241677C0.994258 0.273849 0.952801 0.305235 0.916718 0.342899C0.897525 0.361731 0.883706 0.383702 0.866816 0.403319C0.835339 0.440198 0.802327 0.475508 0.775457 0.516311C0.758567 0.542204 0.745516 0.572022 0.730929 0.599485C0.709433 0.637149 0.686401 0.674028 0.669511 0.714046C0.655692 0.747002 0.648015 0.783097 0.637267 0.817622C0.625751 0.856071 0.610397 0.89295 0.601952 0.933753C0.595042 0.969063 0.594274 1.00594 0.590436 1.04204C0.58583 1.08284 0.577385 1.12129 0.576617 1.16366L5.76302e-05 53.6272C-0.00301326 53.9419 0.116751 54.2448 0.333249 54.4684C0.548979 54.692 0.844552 54.8176 1.15164 54.8176H52.751C53.3828 54.8176 53.8957 54.2989 53.9026 53.6539L54.3379 14.0393C54.4246 13.8737 54.4784 13.6869 54.4784 13.4861V1.177C54.4784 1.14718 54.4722 1.11815 54.4699 1.08833Z" fill="#151D23"/>
<path fill-rule="evenodd" clip-rule="evenodd" d="M7.5343 6.54906C7.73928 6.33956 8.01105 6.22499 8.30048 6.22499C8.58915 6.22499 8.86169 6.33956 9.0659 6.54906C9.27088 6.75857 9.38297 7.03634 9.38297 7.33137C9.38297 7.62719 9.27088 7.90497 9.0659 8.1129V8.11369C8.65671 8.5327 7.94273 8.53191 7.5343 8.1129C7.32932 7.90497 7.21723 7.62719 7.21723 7.33137C7.21723 7.03634 7.32932 6.75857 7.5343 6.54906ZM8.30048 10.7902C9.16724 10.7902 10.034 10.4536 10.6942 9.77875C11.3338 9.12512 11.6861 8.2565 11.6861 7.33137C11.6861 6.40704 11.3338 5.53841 10.6942 4.88478C9.37376 3.5328 7.22414 3.53437 5.90596 4.88478C5.26645 5.53841 4.91406 6.40704 4.91406 7.33137C4.91406 8.2565 5.26645 9.12512 5.90596 9.77796C6.56543 10.4536 7.43296 10.7902 8.30048 10.7902Z" fill="#151D23"/>
<path fill-rule="evenodd" clip-rule="evenodd" d="M15.2814 6.54906C15.4863 6.33955 15.7581 6.22499 16.0468 6.22499C16.3362 6.22499 16.6088 6.33955 16.813 6.54906C17.018 6.75857 17.13 7.03634 17.13 7.33137C17.13 7.62719 17.018 7.90496 16.813 8.1129V8.11369C16.4045 8.53113 15.6913 8.53348 15.2814 8.1129C15.0764 7.90496 14.9643 7.62719 14.9643 7.33137C14.9643 7.03634 15.0764 6.75857 15.2814 6.54906ZM16.0468 10.7902C16.9143 10.7902 17.7818 10.4536 18.4413 9.77796C19.0808 9.12512 19.4332 8.25649 19.4332 7.33137C19.4332 6.40704 19.0808 5.53841 18.4413 4.88478C17.1224 3.53516 14.9735 3.53359 13.653 4.88478C13.0135 5.53841 12.6611 6.40704 12.6611 7.33137C12.6611 8.25649 13.0135 9.12512 13.653 9.77796C14.3125 10.4536 15.18 10.7902 16.0468 10.7902Z" fill="#151D23"/>
<path fill-rule="evenodd" clip-rule="evenodd" d="M23.0284 6.54906C23.2334 6.33956 23.5052 6.22499 23.7946 6.22499C24.0833 6.22499 24.3558 6.33956 24.56 6.54906C24.765 6.75857 24.8771 7.03634 24.8771 7.33137C24.8771 7.62719 24.765 7.90497 24.56 8.1129V8.11369C24.1508 8.5327 23.4376 8.53191 23.0284 8.1129C22.8235 7.90497 22.7114 7.62719 22.7114 7.33137C22.7114 7.03634 22.8235 6.75857 23.0284 6.54906ZM23.7946 10.7902C24.6614 10.7902 25.5281 10.4536 26.1884 9.77875C26.8279 9.12512 27.1803 8.2565 27.1803 7.33137C27.1803 6.40704 26.8279 5.53841 26.1884 4.88478C24.8679 3.5328 22.7183 3.53437 21.4001 4.88478C20.7606 5.53841 20.4082 6.40704 20.4082 7.33137C20.4082 8.2565 20.7606 9.12512 21.4001 9.77796C22.0596 10.4536 22.9271 10.7902 23.7946 10.7902Z" fill="#151D23"/>
<path fill-rule="evenodd" clip-rule="evenodd" d="M21.4077 42.4752L23.2344 44.2624L25.8866 41.6675C26.3464 41.2176 27.0942 41.2146 27.554 41.6644L30.2093 44.2624L32.036 42.4759L29.4474 39.9447C29.4223 39.924 29.3979 39.901 29.3736 39.878L26.7191 37.2792L24.0669 39.8749C24.0504 39.891 24.0269 39.9125 24.0089 39.9279L21.4077 42.4752ZM24.0669 46.7053C23.6071 47.1552 22.8625 47.1552 22.4026 46.7053L18.9109 43.2905C18.6904 43.074 18.5664 42.7807 18.5664 42.4759C18.5664 42.1711 18.6904 41.8779 18.9109 41.6614L25.8866 34.8371C26.1071 34.6214 26.4068 34.4993 26.7191 34.4993C27.0306 34.4993 27.3303 34.6214 27.5508 34.8371L30.9673 38.1797C30.9924 38.2012 31.0175 38.2227 31.041 38.2465L34.5328 41.6614C34.9738 42.0936 34.9738 42.8582 34.5328 43.2905L31.041 46.7053C30.5812 47.1552 29.8366 47.1552 29.3768 46.7053L26.7214 44.1073L24.0669 46.7053Z" fill="#151D23"/>
<path fill-rule="evenodd" clip-rule="evenodd" d="M8.11638 21.0336C8.12584 20.3976 8.89723 19.8828 9.84192 19.8856L44.9297 19.9621C45.7795 19.9635 46.4759 20.3819 46.6017 20.9287C46.6158 20.9901 46.6224 21.0539 46.6221 21.1176C46.6126 21.7537 45.8401 22.2686 44.8965 22.2657L9.80763 22.1893C8.86311 22.1873 8.10303 21.6678 8.11638 21.0336Z" fill="#151D23"/>
<path fill-rule="evenodd" clip-rule="evenodd" d="M8.11633 28.0336C8.12284 27.3976 8.65383 26.8828 9.30412 26.8856L33.4571 26.9621C34.0421 26.9635 34.5214 27.3819 34.608 27.9287C34.6178 27.9901 34.6223 28.0539 34.6221 28.1176C34.6156 28.7537 34.0838 29.2686 33.4343 29.2657L9.28051 29.1893C8.63034 29.1873 8.10714 28.6678 8.11633 28.0336Z" fill="#151D23"/>
</svg>
