<svg xmlns="http://www.w3.org/2000/svg" width="55" height="55" viewBox="0 0 55 55">
    <g fill="#FFF" fill-rule="evenodd">
        <path d="M2.316 52.464l.416-37.8h49.296l-.416 37.8H2.316zm49.847-50.11l-.11 9.955H2.88V2.354h49.283zm2.307-1.266c-.003-.046-.005-.094-.014-.14-.008-.039-.02-.075-.033-.112-.01-.036-.018-.073-.032-.109-.016-.04-.04-.077-.06-.116-.016-.029-.028-.059-.046-.085-.028-.045-.063-.084-.098-.123-.014-.018-.026-.038-.041-.054l-.002-.002A1.189 1.189 0 0 0 53.97.2c-.01-.008-.022-.012-.034-.019a1.119 1.119 0 0 0-.164-.091c-.02-.009-.041-.013-.063-.02-.05-.018-.1-.036-.153-.047a1.11 1.11 0 0 0-.23-.024H1.729c-.079 0-.156.008-.23.024-.02.004-.039.013-.06.018-.052.014-.106.029-.157.05-.017.008-.033.019-.05.027-.05.025-.1.05-.145.081-.018.012-.033.028-.05.042-.042.032-.083.063-.12.1-.018.02-.032.042-.05.061C.837.44.803.476.777.516.758.542.745.572.73.6.709.637.686.674.67.714.656.747.648.784.637.818.626.856.61.893.602.934c-.007.035-.008.072-.012.108-.004.04-.013.08-.013.122L0 53.627c-.003.315.117.618.333.841.216.224.512.35.819.35H52.75c.632 0 1.145-.52 1.152-1.164l.435-39.615c.087-.165.14-.352.14-.553V1.177c0-.03-.006-.059-.008-.089z"/>
        <path d="M7.534 6.55a1.064 1.064 0 0 1 1.532 0c.205.209.317.486.317.781 0 .296-.112.574-.317.782a1.09 1.09 0 0 1-1.532 0 1.105 1.105 0 0 1-.317-.782c0-.295.112-.572.317-.782m.767 4.241c.866 0 1.733-.336 2.393-1.011.64-.654.992-1.523.992-2.448 0-.924-.352-1.793-.992-2.446a3.335 3.335 0 0 0-4.788 0 3.476 3.476 0 0 0-.992 2.446c0 .925.353 1.794.992 2.447a3.334 3.334 0 0 0 2.395 1.012M15.281 6.55a1.063 1.063 0 0 1 1.532 0c.205.209.317.486.317.781 0 .296-.112.574-.317.782a1.09 1.09 0 0 1-1.532 0 1.105 1.105 0 0 1-.317-.782c0-.295.112-.572.317-.782m.766 4.241c.867 0 1.735-.336 2.394-1.012.64-.653.992-1.522.992-2.447 0-.924-.352-1.793-.992-2.446a3.336 3.336 0 0 0-4.788 0 3.476 3.476 0 0 0-.992 2.446c0 .925.352 1.794.992 2.447a3.333 3.333 0 0 0 2.394 1.012M23.028 6.55a1.064 1.064 0 0 1 1.532 0c.205.209.317.486.317.781 0 .296-.112.574-.317.782a1.09 1.09 0 0 1-1.532 0 1.105 1.105 0 0 1-.317-.782c0-.295.112-.572.317-.782m.766 4.241c.867 0 1.734-.336 2.394-1.011.64-.654.992-1.523.992-2.448 0-.924-.352-1.793-.992-2.446a3.335 3.335 0 0 0-4.788 0 3.476 3.476 0 0 0-.992 2.446c0 .925.352 1.794.992 2.447a3.334 3.334 0 0 0 2.394 1.012M21.408 42.475l1.826 1.787 2.653-2.594a1.199 1.199 0 0 1 1.667-.004l2.655 2.598 1.827-1.786-2.589-2.531a1.478 1.478 0 0 1-.073-.067l-2.655-2.599-2.652 2.596-.058.053-2.601 2.547zm2.659 4.23c-.46.45-1.205.45-1.664 0L18.91 43.29a1.142 1.142 0 0 1-.345-.814c0-.305.124-.598.345-.815l6.976-6.824a1.192 1.192 0 0 1 1.664 0l3.416 3.343c.025.021.05.043.074.067l3.492 3.414a1.168 1.168 0 0 1 0 1.63l-3.492 3.414c-.46.45-1.204.45-1.664 0l-2.656-2.598-2.654 2.598zM8.116 21.034c.01-.636.781-1.151 1.726-1.148l35.088.076c.85.002 1.546.42 1.671.967.015.061.02.125.02.189-.009.636-.781 1.15-1.725 1.148l-35.089-.077c-.944-.002-1.704-.521-1.691-1.155zM8.116 28.034a1.173 1.173 0 0 1 1.188-1.148l24.153.076a1.158 1.158 0 0 1 1.165 1.156 1.174 1.174 0 0 1-1.188 1.148L9.28 29.189c-.65-.002-1.173-.521-1.164-1.155z"/>
    </g>
</svg>
