<svg width="55" height="55" viewBox="0 0 55 55" fill="none" xmlns="http://www.w3.org/2000/svg">
<path fill-rule="evenodd" clip-rule="evenodd" d="M51.9955 29.6345H48.1746C47.5326 29.6345 46.9833 30.0925 46.8703 30.7203C46.3652 33.5258 45.2799 36.1362 43.6428 38.4793C43.2763 39.0024 43.3399 39.7128 43.7938 40.1647L46.495 42.8542L43.0414 46.2928L40.3402 43.6033C39.8863 43.1522 39.1728 43.0889 38.6474 43.4529C36.2958 45.0803 33.6732 46.1626 30.8545 46.6664C30.224 46.7798 29.7639 47.3258 29.7639 47.965V51.7693H24.8798V47.965C24.8798 47.3258 24.4197 46.779 23.7893 46.6664C20.9732 46.1635 18.3506 45.0821 15.9964 43.4529C15.4701 43.0889 14.7583 43.1522 14.3036 43.6033L11.6023 46.2928L8.14875 42.8542L10.8509 40.1647C11.3048 39.7128 11.3683 39.0033 11.0019 38.4793C9.36558 36.1362 8.27944 33.5258 7.77433 30.7203C7.6613 30.0925 7.11205 29.6345 6.47008 29.6345H2.64914V24.7716H6.47008C7.11205 24.7716 7.6613 24.3135 7.77433 23.6849C8.27944 20.8802 9.36558 18.2699 11.0019 15.9268C11.3683 15.4028 11.3048 14.6933 10.8509 14.2414L8.14875 11.5519L11.6023 8.11242L14.3036 10.8028C14.7583 11.2547 15.4701 11.318 15.9964 10.9531C18.3497 9.32396 20.9715 8.24342 23.7901 7.73964C24.4197 7.62622 24.8798 7.08023 24.8798 6.44105V2.63761H29.7639V6.44105C29.7639 7.08023 30.224 7.62622 30.8545 7.73964C33.6732 8.24342 36.2958 9.32484 38.6474 10.9531C39.1746 11.318 39.8863 11.2547 40.3402 10.8028L43.0414 8.11242L46.495 11.5519L43.7938 14.2414C43.3399 14.6933 43.2763 15.4028 43.6428 15.9268C45.2799 18.2699 46.3652 20.8802 46.8703 23.6849C46.9833 24.3135 47.5326 24.7716 48.1746 24.7716H51.9955V29.6345ZM53.3201 22.134H49.2545C48.6973 19.7214 47.7498 17.4469 46.4305 15.3456L49.3049 12.4838C49.8223 11.9686 49.8223 11.1342 49.3049 10.619L43.9783 5.31567C43.4609 4.80046 42.6228 4.80046 42.1054 5.31567L39.2311 8.17748C37.1215 6.86483 34.8362 5.92144 32.4131 5.36491V1.31881C32.4131 0.590825 31.8197 0 31.0885 0H23.5552C22.8241 0 22.2307 0.590825 22.2307 1.31881V5.36491C19.8085 5.92144 17.5232 6.86483 15.4127 8.17748L12.5384 5.31567C12.0209 4.80046 11.1829 4.80046 10.6654 5.31567L5.33889 10.619C5.09076 10.8661 4.95124 11.2019 4.95124 11.5519C4.95124 11.9009 5.09076 12.2368 5.33889 12.4838L8.21409 15.3456C6.89482 17.4469 5.9482 19.7214 5.39011 22.134H1.32457C0.593407 22.134 0 22.7248 0 23.4528V30.9533C0 31.6813 0.593407 32.2721 1.32457 32.2721H5.39011C5.9482 34.6846 6.89482 36.9591 8.21409 39.0604L5.33889 41.9222C5.09076 42.1693 4.95124 42.5051 4.95124 42.8542C4.95124 43.2041 5.09076 43.5391 5.33889 43.787L10.6654 49.0904C11.1829 49.6056 12.0209 49.6056 12.5384 49.0904L15.4127 46.2286C17.524 47.5421 19.8094 48.4846 22.2307 49.0403V53.0881C22.2307 53.8161 22.8241 54.4069 23.5552 54.4069H31.0885C31.8197 54.4069 32.4131 53.8161 32.4131 53.0881V49.0403C34.8362 48.4837 37.1215 47.5412 39.2311 46.2286L42.1054 49.0904C42.6228 49.6056 43.4609 49.6056 43.9783 49.0904L49.3049 43.787C49.8223 43.2718 49.8223 42.4374 49.3049 41.9222L46.4305 39.0604C47.7498 36.9591 48.6973 34.6846 49.2545 32.2721H53.3201C54.0512 32.2721 54.6446 31.6813 54.6446 30.9533V23.4528C54.6446 22.7248 54.0512 22.134 53.3201 22.134Z" fill="#151D23"/>
<path fill-rule="evenodd" clip-rule="evenodd" d="M27.322 25.8841C26.5908 25.8841 25.9974 26.4749 25.9974 27.2029V37.7173C20.7521 37.0658 16.6795 32.5995 16.6795 27.2029C16.6795 21.3597 21.4532 16.6067 27.322 16.6067C32.7421 16.6067 37.228 20.6616 37.8823 25.8841H27.322ZM27.322 13.9691C19.9927 13.9691 14.0304 19.9055 14.0304 27.2029C14.0304 34.5003 19.9927 40.4367 27.322 40.4367C28.0531 40.4367 28.6465 39.8459 28.6465 39.1179V28.5217H39.289C40.0202 28.5217 40.6136 27.9309 40.6136 27.2029C40.6136 19.9055 34.6512 13.9691 27.322 13.9691Z" fill="#151D23"/>
</svg>
