<svg xmlns="http://www.w3.org/2000/svg" width="55" height="55" viewBox="0 0 55 55">
    <g fill="#FFF" fill-rule="evenodd">
        <path d="M51.995 29.634h-3.82c-.642 0-1.192.459-1.305 1.086a19.479 19.479 0 0 1-3.227 7.76 1.314 1.314 0 0 0 .15 1.685l2.702 2.69-3.454 3.438-2.7-2.69a1.33 1.33 0 0 0-1.694-.15 19.692 19.692 0 0 1-7.793 3.213c-.63.114-1.09.66-1.09 1.299v3.804H24.88v-3.804c0-.64-.46-1.186-1.09-1.299a19.686 19.686 0 0 1-7.794-3.213 1.33 1.33 0 0 0-1.692.15l-2.702 2.69-3.453-3.439 2.702-2.69A1.313 1.313 0 0 0 11 38.48a19.492 19.492 0 0 1-3.227-7.759 1.323 1.323 0 0 0-1.304-1.086H2.65v-4.862h3.82c.642 0 1.191-.458 1.304-1.087a19.493 19.493 0 0 1 3.228-7.758 1.313 1.313 0 0 0-.151-1.686l-2.702-2.69 3.453-3.439 2.702 2.69a1.328 1.328 0 0 0 1.692.151A19.681 19.681 0 0 1 23.79 7.74c.63-.114 1.09-.66 1.09-1.299V2.638h4.884V6.44c0 .64.46 1.185 1.09 1.299a19.68 19.68 0 0 1 7.793 3.213 1.328 1.328 0 0 0 1.693-.15l2.701-2.69 3.454 3.439-2.701 2.69a1.313 1.313 0 0 0-.151 1.685 19.48 19.48 0 0 1 3.227 7.758 1.323 1.323 0 0 0 1.305 1.087h3.82v4.862zm1.325-7.5h-4.065a22.044 22.044 0 0 0-2.824-6.788l2.874-2.862a1.314 1.314 0 0 0 0-1.865l-5.327-5.303a1.328 1.328 0 0 0-1.873 0l-2.874 2.861a22.305 22.305 0 0 0-6.818-2.812V1.319C32.413.59 31.82 0 31.09 0h-7.534c-.73 0-1.324.59-1.324 1.319v4.046a22.324 22.324 0 0 0-6.818 2.812l-2.875-2.861a1.328 1.328 0 0 0-1.873 0L5.34 10.619a1.317 1.317 0 0 0 0 1.865l2.875 2.862a22.066 22.066 0 0 0-2.824 6.788H1.325c-.732 0-1.325.59-1.325 1.319v7.5c0 .728.593 1.32 1.325 1.32H5.39a22.066 22.066 0 0 0 2.824 6.787L5.34 41.922a1.316 1.316 0 0 0 0 1.865l5.326 5.303a1.328 1.328 0 0 0 1.873 0l2.875-2.861a22.296 22.296 0 0 0 6.818 2.811v4.048c0 .728.593 1.319 1.324 1.319h7.534c.73 0 1.324-.59 1.324-1.319V49.04a22.303 22.303 0 0 0 6.818-2.811l2.874 2.861a1.328 1.328 0 0 0 1.873 0l5.327-5.303a1.314 1.314 0 0 0 0-1.865L46.43 39.06a22.044 22.044 0 0 0 2.824-6.788h4.065c.731 0 1.325-.59 1.325-1.319v-7.5c0-.728-.594-1.319-1.325-1.319z"/>
        <path d="M27.322 25.884c-.731 0-1.325.591-1.325 1.319v10.514c-5.245-.651-9.318-5.118-9.318-10.514 0-5.843 4.774-10.596 10.643-10.596 5.42 0 9.906 4.055 10.56 9.277h-10.56zm0-11.915c-7.33 0-13.292 5.937-13.292 13.234s5.963 13.234 13.292 13.234c.731 0 1.325-.591 1.325-1.32V28.523h10.642c.731 0 1.325-.591 1.325-1.32 0-7.296-5.963-13.233-13.292-13.233z"/>
    </g>
</svg>
